<?xml version="1.0" standalone="no"?>
<!DOCTYPE svg PUBLIC "-//W3C//DTD SVG 20010904//EN"
 "http://www.w3.org/TR/2001/REC-SVG-20010904/DTD/svg10.dtd">
<svg version="1.0" xmlns="http://www.w3.org/2000/svg"
 width="200.000000pt" height="200.000000pt" viewBox="0 0 200.000000 200.000000"
 preserveAspectRatio="xMidYMid meet">
<metadata>
Created by potrace 1.10, written by Peter Selinger 2001-2011
</metadata>
<g transform="translate(0.000000,200.000000) scale(0.100000,-0.100000)"
fill="#000000" stroke="none">
<path d="M826 1723 c-14 -74 11 -127 110 -233 68 -73 65 -123 -8 -140 -28 -7
-25 -8 21 -7 50 2 57 5 72 32 26 47 9 84 -72 162 -82 79 -101 109 -109 178
l-6 50 -8 -42z"/>
<path d="M1060 1533 c0 -6 7 -16 15 -23 8 -7 19 -27 24 -44 6 -21 9 -25 10
-10 1 11 -10 35 -24 54 -14 19 -25 29 -25 23z"/>
<path d="M910 1201 c184 -9 189 -39 7 -40 -157 -1 -357 -40 -387 -75 -53 -65
468 -110 705 -62 145 29 203 69 156 107 -52 43 -279 80 -469 77 l-127 -2 115
-5z m193 -28 c-7 -2 -19 -2 -25 0 -7 3 -2 5 12 5 14 0 19 -2 13 -5z"/>
<path d="M1487 1026 c-11 -185 -93 -351 -214 -431 -205 -137 -534 -122 -698
32 -62 58 -135 175 -135 216 0 9 -4 18 -9 21 -17 11 7 -65 47 -144 38 -78 40
-100 5 -100 -7 0 -42 -12 -77 -26 -66 -26 -136 -83 -136 -110 0 -25 56 -71
124 -103 80 -38 202 -68 356 -86 157 -19 222 -19 390 1 169 19 281 45 368 84
113 52 151 108 100 151 -32 29 -45 24 -40 -16 6 -54 -36 -87 -178 -135 -110
-37 -236 -53 -430 -54 -204 0 -326 16 -462 60 -185 61 -210 140 -64 203 68 29
104 27 155 -11 46 -34 46 -36 -9 -68 -12 -7 -12 -11 -1 -24 19 -23 40 -20 34
4 -9 34 38 36 125 4 71 -27 88 -29 212 -29 118 0 143 3 200 24 130 49 233 138
285 246 35 75 65 186 65 245 0 67 20 90 78 90 50 0 81 -18 102 -59 20 -40 -6
-123 -50 -158 -9 -8 -10 -12 -3 -13 20 0 75 79 84 122 13 53 -3 101 -42 129
-23 16 -47 22 -103 23 l-73 2 -6 -90z"/>
</g>
</svg>
