<?xml version="1.0" standalone="no"?>
<!DOCTYPE svg PUBLIC "-//W3C//DTD SVG 20010904//EN"
 "http://www.w3.org/TR/2001/REC-SVG-20010904/DTD/svg10.dtd">
<svg version="1.0" xmlns="http://www.w3.org/2000/svg"
 width="200.000000pt" height="200.000000pt" viewBox="0 0 200.000000 200.000000"
 preserveAspectRatio="xMidYMid meet">
<metadata>
Created by potrace 1.10, written by Peter Selinger 2001-2011
</metadata>
<g transform="translate(0.000000,200.000000) scale(0.100000,-0.100000)"
fill="#000000" stroke="none">
<path d="M874 1808 c23 -76 20 -96 -28 -192 l-46 -95 16 -40 c15 -39 38 -58
49 -42 2 5 -2 14 -10 21 -26 21 -18 82 20 154 28 53 35 79 35 122 0 57 -12 94
-32 94 -6 0 -8 -9 -4 -22z"/>
<path d="M987 1798 c15 -61 6 -116 -28 -171 -41 -67 -50 -141 -22 -176 12 -15
25 -21 32 -17 9 6 8 12 -4 26 -27 30 -20 81 19 155 38 71 47 136 26 189 -14
39 -33 33 -23 -6z"/>
<path d="M1096 1794 c13 -65 7 -102 -30 -174 -41 -79 -47 -135 -17 -171 26
-32 40 -15 18 22 -24 43 -22 54 22 139 49 96 56 128 38 173 -22 53 -42 60 -31
11z"/>
<path d="M580 1310 c-11 -11 -20 -32 -20 -47 0 -15 -9 -36 -20 -48 -31 -33
-37 -88 -13 -122 16 -22 25 -70 43 -223 58 -494 89 -721 100 -735 11 -13 57
-15 294 -15 216 0 286 3 300 13 14 11 22 45 36 173 19 162 51 430 70 584 18
147 27 190 44 208 23 27 20 76 -7 109 -13 15 -27 45 -30 67 -3 21 -9 41 -12
45 -4 3 -177 7 -385 9 -370 3 -380 2 -400 -18z m759 -19 c12 -12 21 -34 21
-52 0 -19 8 -37 20 -47 11 -10 21 -28 22 -42 l3 -25 -432 -3 -433 -2 0 30 c0
19 7 34 20 42 11 7 20 23 20 35 0 35 18 71 37 75 10 1 172 4 360 6 335 3 342
3 362 -17z"/>
</g>
</svg>
