<?xml version="1.0" standalone="no"?>
<!DOCTYPE svg PUBLIC "-//W3C//DTD SVG 20010904//EN"
 "http://www.w3.org/TR/2001/REC-SVG-20010904/DTD/svg10.dtd">
<svg version="1.0" xmlns="http://www.w3.org/2000/svg"
 width="200.000000pt" height="200.000000pt" viewBox="0 0 200.000000 200.000000"
 preserveAspectRatio="xMidYMid meet">
<metadata>
Created by potrace 1.10, written by Peter Selinger 2001-2011
</metadata>
<g transform="translate(0.000000,200.000000) scale(0.100000,-0.100000)"
fill="#000000" stroke="none">
<path d="M737 1703 c-4 -3 -7 -24 -7 -45 0 -30 -12 -58 -51 -119 -55 -85 -73
-155 -49 -184 15 -19 30 -10 30 17 0 36 22 91 52 131 33 42 67 114 68 139 0
21 -21 68 -30 68 -4 0 -10 -3 -13 -7z"/>
<path d="M997 1703 c-4 -3 -7 -27 -7 -52 0 -38 -8 -57 -47 -114 -40 -58 -47
-76 -51 -126 -3 -39 0 -61 8 -66 16 -10 30 12 30 47 0 34 17 74 51 118 56 75
73 135 49 181 -11 20 -22 24 -33 12z"/>
<path d="M1260 1662 c0 -41 -7 -58 -40 -105 -65 -90 -87 -165 -61 -206 16 -25
41 6 41 49 0 26 12 55 40 98 57 90 70 117 70 155 0 34 -15 57 -37 57 -9 0 -13
-15 -13 -48z"/>
<path d="M543 1205 c-6 -17 -4 -33 21 -230 58 -448 66 -497 78 -512 8 -10 85
-13 324 -13 l314 0 11 28 c11 26 20 93 54 377 10 77 19 143 21 146 8 14 24
188 18 203 -5 14 -52 16 -420 16 -364 0 -415 -2 -421 -15z"/>
<path d="M1437 1143 c-4 -3 -7 -14 -7 -24 0 -12 12 -18 45 -23 70 -11 90 -34
88 -97 -5 -109 -41 -172 -138 -239 -45 -31 -55 -46 -55 -86 l0 -25 33 22 c173
119 194 147 217 289 15 91 1 138 -52 170 -32 19 -117 28 -131 13z"/>
<path d="M690 392 c-13 -5 -13 -53 0 -86 l10 -26 258 0 c187 0 261 3 270 12
16 16 16 98 0 99 -37 3 -530 3 -538 1z"/>
</g>
</svg>
